# Wavefront Object File
# Generated using SpeedTree tools

mtllib Export_Speedtree.mtl

v -5.40625e-007 -12.6581 12.3681
v -8.09251e-007 22.5201 18.5135
v -8.09251e-007 57.6984 18.5135
v 1.55955e-006 -12.6581 -35.6783
v 1.55955e-006 22.5201 -35.6783
v 3.38518e-007 57.6984 -7.7444
v -7.12063 -12.6581 7.12063
v -12.2065 21.4541 12.2065
v -12.2065 55.5664 12.2065
v 24.9593 -12.6581 -24.9593
v 24.9593 21.4541 -24.9593
v 24.9593 55.5664 -24.9593
v -13.3557 -12.6581 -6.14289e-007
v -19.7014 21.4541 -2.66014e-006
v -19.7014 55.5664 -4.15123e-006
v 7.41202 -12.6581 1.20128e-006
v 35.1023 21.4541 2.13095e-006
v 35.1023 55.5664 6.39853e-007
v -7.79606 -12.6581 -7.79606
v -16.6908 21.4541 -16.6908
v -16.6908 55.5664 -16.6908
v 8.44655 -12.6581 8.44655
v 20.4351 21.4541 20.4351
v 20.4351 55.5664 20.4351
v 2.05608e-007 -12.6581 -17.2419
v 4.12135e-007 21.4541 -34.5609
v 4.12135e-007 55.5664 -34.5609
v -1.47488e-007 -12.6581 12.3681
v -2.00785e-007 21.4541 16.8375
v -2.00785e-007 55.5664 16.8375
v 23.7856 -12.6581 -23.7856
v 24.5681 22.5201 -24.5681
v 24.5681 57.6984 -24.5681
v -6.72942 -12.6581 6.72941
v -11.8153 22.5201 11.8152
v -11.8153 57.6984 11.8152
v 8.56577 -12.6581 2.05099e-006
v 33.9485 22.5201 4.95136e-006
v 33.9485 57.6984 3.41367e-006
v -12.7788 -12.6581 -1.68102e-006
v -18.5476 22.5201 -4.22736e-006
v -18.5476 57.6984 -5.76505e-006
v 9.21999 -12.6581 9.22
v 19.6617 22.5201 19.6617
v 19.6617 57.6984 19.6617
v -8.56952 -12.6581 -8.56953
v -16.3041 22.5201 -16.3041
v -16.3041 57.6984 -16.3041
v -19.7014 22.8755 18.5135
v 7.70044 22.8755 18.5135
v 35.1023 22.8755 9.57466
v -19.7014 22.8755 -18.3593
v 7.70044 22.8755 -35.6783
v 35.1023 22.8755 -35.6783
vn -1 -3.82137e-015 -8.74228e-008
vt 0.0307289 0.669108
vn -1 -3.82137e-015 -8.74228e-008
vt 0.00244141 0.831691
vn -1 -3.82137e-015 -8.74228e-008
vt 0.00244141 0.994274
vn -1 -3.82137e-015 -8.74228e-008
vt 0.251886 0.669108
vn -1 -3.82137e-015 -8.74228e-008
vt 0.251886 0.831691
vn -1 -3.82137e-015 -8.74228e-008
vt 0.123307 0.994274
vn -0.707107 -3.09086e-008 -0.707107
vt 0.573257 0.00244141
vn -0.707107 -3.09086e-008 -0.707107
vt 0.540156 0.160098
vn -0.707107 -3.09086e-008 -0.707107
vt 0.540156 0.317754
vn -0.707107 -3.09086e-008 -0.707107
vt 0.782046 0.00244141
vn -0.707107 -3.09086e-008 -0.707107
vt 0.782046 0.160098
vn -0.707107 -3.09086e-008 -0.707107
vt 0.782046 0.317754
vn 1.19249e-008 -4.37114e-008 -1
vt 0.036982 0.00244141
vn 1.19249e-008 -4.37114e-008 -1
vt 0.00775535 0.160098
vn 1.19249e-008 -4.37114e-008 -1
vt 0.00775535 0.317754
vn 1.19249e-008 -4.37114e-008 -1
vt 0.132633 0.00244141
vn 1.19249e-008 -4.37114e-008 -1
vt 0.260168 0.160098
vn 1.19249e-008 -4.37114e-008 -1
vt 0.260168 0.317754
vn 0.707107 -3.09086e-008 -0.707107
vt 0.333416 0.669108
vn 0.707107 -3.09086e-008 -0.707107
vt 0.275538 0.826764
vn 0.707107 -3.09086e-008 -0.707107
vt 0.275538 0.984421
vn 0.707107 -3.09086e-008 -0.707107
vt 0.439106 0.669108
vn 0.707107 -3.09086e-008 -0.707107
vt 0.517115 0.826764
vn 0.707107 -3.09086e-008 -0.707107
vt 0.517115 0.984421
vn 1 7.64274e-015 1.74846e-007
vt 0.365599 0.00244141
vn 1 7.64274e-015 1.74846e-007
vt 0.285879 0.160098
vn 1 7.64274e-015 1.74846e-007
vt 0.285879 0.317754
vn 1 7.64274e-015 1.74846e-007
vt 0.501893 0.00244141
vn 1 7.64274e-015 1.74846e-007
vt 0.522466 0.160098
vn 1 7.64274e-015 1.74846e-007
vt 0.522466 0.317754
vn 0.707107 3.09086e-008 0.707107
vt 0.288299 0.335775
vn 0.707107 3.09086e-008 0.707107
vt 0.283206 0.498358
vn 0.707107 3.09086e-008 0.707107
vt 0.283206 0.660941
vn 0.707107 3.09086e-008 0.707107
vt 0.486903 0.335775
vn 0.707107 3.09086e-008 0.707107
vt 0.520004 0.498358
vn 0.707107 3.09086e-008 0.707107
vt 0.520004 0.660941
vn -3.37766e-007 4.37114e-008 1
vt 0.132633 0.335775
vn -3.37766e-007 4.37114e-008 1
vt 0.0157263 0.498358
vn -3.37766e-007 4.37114e-008 1
vt 0.0157263 0.660941
vn -3.37766e-007 4.37114e-008 1
vt 0.230941 0.335775
vn -3.37766e-007 4.37114e-008 1
vt 0.257511 0.498358
vn -3.37766e-007 4.37114e-008 1
vt 0.257511 0.660941
vn -0.707107 3.09086e-008 0.707106
vt 0.613051 0.335775
vn -0.707107 3.09086e-008 0.707106
vt 0.545107 0.498358
vn -0.707107 3.09086e-008 0.707106
vt 0.545107 0.660941
vn -0.707107 3.09086e-008 0.707106
vt 0.728807 0.335775
vn -0.707107 3.09086e-008 0.707106
vt 0.779135 0.498358
vn -0.707107 3.09086e-008 0.707106
vt 0.779135 0.660941
vn -0 1 -4.37114e-008
vt 0.532525 0.674422
vn -0 1 -4.37114e-008
vt 0.532525 0.800628
vn -0 1 -4.37114e-008
vt 0.573671 0.926834
vn -0 1 -4.37114e-008
vt 0.702251 0.674422
vn -0 1 -4.37114e-008
vt 0.78197 0.800628
vn -0 1 -4.37114e-008
vt 0.78197 0.926834
g BillboardSG
usemtl Export_Speedtree_Billboard_Mat
s 1

f 4/4/4 1/1/1 2/2/2 
f 4/4/4 2/2/2 5/5/5 
f 5/5/5 2/2/2 3/3/3 
f 5/5/5 3/3/3 6/6/6 
f 10/10/10 7/7/7 8/8/8 
f 10/10/10 8/8/8 11/11/11 
f 11/11/11 8/8/8 9/9/9 
f 11/11/11 9/9/9 12/12/12 
f 16/16/16 13/13/13 14/14/14 
f 16/16/16 14/14/14 17/17/17 
f 17/17/17 14/14/14 15/15/15 
f 17/17/17 15/15/15 18/18/18 
f 22/22/22 19/19/19 20/20/20 
f 22/22/22 20/20/20 23/23/23 
f 23/23/23 20/20/20 21/21/21 
f 23/23/23 21/21/21 24/24/24 
f 28/28/28 25/25/25 26/26/26 
f 28/28/28 26/26/26 29/29/29 
f 29/29/29 26/26/26 27/27/27 
f 29/29/29 27/27/27 30/30/30 
f 34/34/34 31/31/31 32/32/32 
f 34/34/34 32/32/32 35/35/35 
f 35/35/35 32/32/32 33/33/33 
f 35/35/35 33/33/33 36/36/36 
f 40/40/40 37/37/37 38/38/38 
f 40/40/40 38/38/38 41/41/41 
f 41/41/41 38/38/38 39/39/39 
f 41/41/41 39/39/39 42/42/42 
f 46/46/46 43/43/43 44/44/44 
f 46/46/46 44/44/44 47/47/47 
f 47/47/47 44/44/44 45/45/45 
f 47/47/47 45/45/45 48/48/48 
f 52/52/52 49/49/49 50/50/50 
f 52/52/52 50/50/50 53/53/53 
f 53/53/53 50/50/50 51/51/51 
f 53/53/53 51/51/51 54/54/54 



