# 3ds Max Wavefront OBJ Exporter v0.99 - (c)2007 guruware
# File Created: 01.04.2021 12:55:58

#
# object Plane021
#

v  51.9251 32.6131 -42.9972
v  68.3118 32.6131 -35.3559
v  68.3118 51.8194 -35.3559
v  51.9251 51.8194 -42.9972
v  51.9251 -5.7996 -42.9972
v  68.3118 -5.7996 -35.3559
v  68.3118 13.4067 -35.3559
v  51.9251 13.4067 -42.9972
v  68.3118 90.2321 -35.3559
v  51.9251 90.2321 -42.9972
v  51.9251 71.0258 -42.9972
v  68.3118 71.0258 -35.3559
v  84.6985 32.6131 -27.7147
v  84.6985 51.8194 -27.7147
v  35.5384 51.8194 -50.6384
v  35.5384 32.6131 -50.6384
v  84.6985 -5.7996 -27.7147
v  84.6985 13.4067 -27.7147
v  35.5384 13.4067 -50.6384
v  35.5384 -5.7996 -50.6384
v  35.5384 90.2321 -50.6384
v  35.5384 71.0258 -50.6384
v  84.6985 71.0258 -27.7147
v  84.6985 90.2321 -27.7147
# 24 vertices

vn -0.4226 -0.0000 0.9063
# 1 vertex normals

vt 0.0992 0.4579 0.0000
vt 0.1856 0.4579 0.0000
vt 0.1856 0.5419 0.0000
vt 0.0992 0.5419 0.0000
vt 0.0992 0.2898 0.0000
vt 0.1856 0.2898 0.0000
vt 0.1856 0.3738 0.0000
vt 0.0992 0.3738 0.0000
vt 0.1856 0.7100 0.0000
vt 0.0992 0.7100 0.0000
vt 0.0992 0.6260 0.0000
vt 0.1856 0.6260 0.0000
vt 0.2735 0.4579 0.0000
vt 0.2735 0.5419 0.0000
vt 0.0103 0.5419 0.0000
vt 0.0103 0.4579 0.0000
vt 0.2735 0.2898 0.0000
vt 0.2735 0.3738 0.0000
vt 0.0103 0.3738 0.0000
vt 0.0103 0.2898 0.0000
vt 0.0103 0.7100 0.0000
vt 0.0103 0.6260 0.0000
vt 0.2735 0.6260 0.0000
vt 0.2735 0.7100 0.0000
# 24 texture coords

o Plane021
g Plane021
s 1
f 1/1/1 2/2/1 3/3/1 4/4/1 
f 5/5/1 6/6/1 7/7/1 8/8/1 
f 8/8/1 7/7/1 2/2/1 1/1/1 
f 9/9/1 10/10/1 11/11/1 12/12/1 
f 12/12/1 11/11/1 4/4/1 3/3/1 
f 2/2/1 13/13/1 14/14/1 3/3/1 
f 4/4/1 15/15/1 16/16/1 1/1/1 
f 6/6/1 17/17/1 18/18/1 7/7/1 
f 8/8/1 19/19/1 20/20/1 5/5/1 
f 7/7/1 18/18/1 13/13/1 2/2/1 
f 1/1/1 16/16/1 19/19/1 8/8/1 
f 10/10/1 21/21/1 22/22/1 11/11/1 
f 12/12/1 23/23/1 24/24/1 9/9/1 
f 11/11/1 22/22/1 15/15/1 4/4/1 
f 3/3/1 14/14/1 23/23/1 12/12/1 
# 15 polygons

#
# object Plane022
#

v  51.9251 32.6131 -42.9972
v  68.3118 32.6131 -35.3559
v  68.3118 51.8194 -35.3559
v  51.9251 51.8194 -42.9972
v  51.9251 -5.7996 -42.9972
v  68.3118 -5.7996 -35.3559
v  68.3118 13.4067 -35.3559
v  51.9251 13.4067 -42.9972
v  68.3118 90.2321 -35.3559
v  51.9251 90.2321 -42.9972
v  51.9251 71.0258 -42.9972
v  68.3118 71.0258 -35.3559
v  84.6985 32.6131 -27.7147
v  84.6985 51.8194 -27.7147
v  35.5384 51.8194 -50.6384
v  35.5384 32.6131 -50.6384
v  84.6985 -5.7996 -27.7147
v  84.6985 13.4067 -27.7147
v  35.5384 13.4067 -50.6384
v  35.5384 -5.7996 -50.6384
v  35.5384 90.2321 -50.6384
v  35.5384 71.0258 -50.6384
v  84.6985 71.0258 -27.7147
v  84.6985 90.2321 -27.7147
# 24 vertices

vn 0.4226 0.0000 -0.9063
# 1 vertex normals

vt 0.0992 0.4579 0.0000
vt 0.1856 0.4579 0.0000
vt 0.1856 0.5419 0.0000
vt 0.0992 0.5419 0.0000
vt 0.0992 0.2898 0.0000
vt 0.1856 0.2898 0.0000
vt 0.1856 0.3738 0.0000
vt 0.0992 0.3738 0.0000
vt 0.1856 0.7100 0.0000
vt 0.0992 0.7100 0.0000
vt 0.0992 0.6260 0.0000
vt 0.1856 0.6260 0.0000
vt 0.2735 0.4579 0.0000
vt 0.2735 0.5419 0.0000
vt 0.0103 0.5419 0.0000
vt 0.0103 0.4579 0.0000
vt 0.2735 0.2898 0.0000
vt 0.2735 0.3738 0.0000
vt 0.0103 0.3738 0.0000
vt 0.0103 0.2898 0.0000
vt 0.0103 0.7100 0.0000
vt 0.0103 0.6260 0.0000
vt 0.2735 0.6260 0.0000
vt 0.2735 0.7100 0.0000
# 24 texture coords

o Plane022
g Plane022
s 1
f 28/28/2 27/27/2 26/26/2 25/25/2 
f 32/32/2 31/31/2 30/30/2 29/29/2 
f 25/25/2 26/26/2 31/31/2 32/32/2 
f 36/36/2 35/35/2 34/34/2 33/33/2 
f 27/27/2 28/28/2 35/35/2 36/36/2 
f 27/27/2 38/38/2 37/37/2 26/26/2 
f 25/25/2 40/40/2 39/39/2 28/28/2 
f 31/31/2 42/42/2 41/41/2 30/30/2 
f 29/29/2 44/44/2 43/43/2 32/32/2 
f 26/26/2 37/37/2 42/42/2 31/31/2 
f 32/32/2 43/43/2 40/40/2 25/25/2 
f 35/35/2 46/46/2 45/45/2 34/34/2 
f 33/33/2 48/48/2 47/47/2 36/36/2 
f 28/28/2 39/39/2 46/46/2 35/35/2 
f 36/36/2 47/47/2 38/38/2 27/27/2 
# 15 polygons

