# 3ds Max Wavefront OBJ Exporter v0.99 - (c)2007 guruware
# File Created: 12.04.2021 13:12:42

mtllib LP_Rock.mtl

#
# object rockLP002
#

v  -0.6353 -0.9067 0.6774
v  -0.5638 -0.7777 0.9326
v  -0.7306 -0.6184 0.7727
v  -0.7875 -0.6776 0.5441
v  -0.2673 -0.9307 0.7062
v  -0.2302 -0.7343 0.9133
v  0.1136 -0.8740 0.6709
v  0.0790 -0.7070 0.8847
v  0.3827 -0.7178 0.5795
v  0.3309 -0.6276 0.8043
v  0.6039 -0.6430 0.5325
v  0.5223 -0.5607 0.7359
v  -0.7350 -1.0836 0.3323
v  -0.9007 -0.7941 0.2798
v  -0.2798 -0.9989 0.3220
v  0.1280 -0.9727 0.3129
v  0.4759 -0.8930 0.2988
v  0.7327 -0.7930 0.2825
v  -0.6785 -0.9925 -0.0927
v  -0.9188 -0.8131 -0.0525
v  -0.2802 -1.0371 -0.0967
v  0.1363 -1.0148 -0.0942
v  0.4654 -0.8844 -0.0654
v  0.7673 -0.8291 -0.0505
v  -0.5896 -0.8581 -0.3986
v  -0.8672 -0.7776 -0.3587
v  -0.2520 -0.8945 -0.4149
v  0.1265 -1.0173 -0.4973
v  0.4975 -0.9506 -0.4554
v  0.7888 -0.8549 -0.4009
v  -0.5426 -0.7989 -0.6580
v  -0.8044 -0.7390 -0.6123
v  -0.2414 -0.8418 -0.6953
v  0.1066 -0.9309 -0.7833
v  0.5094 -0.9861 -0.8533
v  0.7966 -0.8699 -0.7545
v  -0.6249 0.8460 0.6670
v  -0.8291 0.7225 0.6052
v  -0.7866 0.6732 0.8288
v  -0.5608 0.7318 0.8678
v  -0.3272 0.9899 0.7386
v  -0.2950 0.7876 0.9117
v  0.0314 0.9151 0.7017
v  0.0116 0.8470 0.9775
v  0.3833 0.9259 0.7049
v  0.3235 0.8437 0.9626
v  0.6215 0.8018 0.6421
v  0.5487 0.7518 0.8796
v  -0.6762 0.9371 0.3644
v  -0.8971 0.7929 0.3419
v  -0.3454 1.0836 0.3875
v  0.0604 1.0160 0.3778
v  0.4637 1.0248 0.3865
v  0.7442 0.8991 0.3604
v  -0.6926 0.9455 -0.0019
v  -0.9208 0.8050 0.0334
v  -0.3366 1.0108 -0.0193
v  0.0688 1.0680 -0.0267
v  0.4522 1.0068 -0.0122
v  0.6899 0.8489 0.0223
v  -0.6132 0.7929 -0.2946
v  -0.8002 0.6747 -0.2060
v  -0.3215 0.8974 -0.3668
v  0.0575 1.0142 -0.4284
v  0.4836 1.0527 -0.4414
v  0.6408 0.7857 -0.2788
v  -0.5673 0.6871 -0.5290
v  -0.7223 0.5830 -0.4013
v  -0.2925 0.7160 -0.5611
v  0.0158 0.7834 -0.6207
v  0.3927 0.8775 -0.7083
v  0.6181 0.7621 -0.5760
v  -0.6769 -0.5536 1.1175
v  -0.8395 -0.4157 0.8816
v  -0.2790 -0.5298 1.1132
v  0.1009 -0.4952 1.0581
v  0.4452 -0.4661 1.0161
v  0.6226 -0.3780 0.8564
v  -0.6872 -0.1536 1.1237
v  -0.9652 -0.1425 1.0074
v  -0.3399 -0.1848 1.3728
v  0.1370 -0.1638 1.3365
v  0.4995 -0.1345 1.1565
v  0.7222 -0.1097 0.9739
v  -0.6970 0.2259 1.1110
v  -0.9665 0.1936 1.0086
v  -0.3492 0.2707 1.2524
v  0.1060 0.3084 1.3580
v  0.4687 0.2693 1.1718
v  0.8002 0.2452 1.0908
v  -0.6258 0.5200 0.9785
v  -0.9169 0.4927 0.9591
v  -0.3141 0.5653 1.0314
v  0.0537 0.6488 1.1531
v  0.5078 0.7115 1.2462
v  0.7202 0.5765 1.0434
v  0.6852 -0.4292 0.6053
v  0.8343 -0.5360 0.3143
v  1.1001 -0.6836 -0.1221
v  1.1521 -0.7222 -0.6245
v  0.8502 -0.5603 -0.8080
v  0.8073 -0.1420 0.6901
v  0.9902 -0.1961 0.3505
v  1.3297 -0.2614 -0.1732
v  1.3173 -0.2613 -0.7319
v  0.8913 -0.1948 -0.8492
v  1.0341 0.2882 0.8585
v  1.2959 0.3261 0.4321
v  1.1277 0.2778 -0.0994
v  1.0452 0.2476 -0.5464
v  0.9763 0.2154 -0.9342
v  0.8053 0.6114 0.7474
v  0.9908 0.7046 0.3991
v  0.8256 0.5994 -0.0140
v  0.7756 0.5554 -0.3654
v  0.7602 0.5413 -0.7180
v  0.5409 -0.6454 -0.9151
v  0.1795 -0.7956 -1.1326
v  -0.3083 -0.7403 -1.0438
v  -0.7339 -0.6854 -0.9671
v  -0.9193 -0.5185 -0.7023
v  0.5574 -0.2361 -0.9299
v  0.1840 -0.3014 -1.1506
v  -0.3785 -0.3481 -1.3728
v  -0.8230 -0.2891 -1.0834
v  -1.0881 -0.2285 -0.8490
v  0.6265 0.2239 -1.0690
v  0.1375 0.2081 -1.0650
v  -0.3371 0.1893 -0.9480
v  -0.7578 0.1828 -0.8960
v  -0.9458 0.1466 -0.6500
v  0.5149 0.6269 -0.9037
v  0.0546 0.5426 -0.7761
v  -0.3104 0.4889 -0.6805
v  -0.6482 0.4855 -0.6690
v  -0.8190 0.4027 -0.5009
v  -0.9797 -0.5292 -0.4067
v  -0.9976 -0.5251 -0.0542
v  -1.0193 -0.5232 0.3110
v  -0.9025 -0.4509 0.6121
v  -1.1292 -0.2063 -0.4674
v  -1.1248 -0.1889 -0.0523
v  -1.1503 -0.1819 0.3538
v  -1.1173 -0.1723 0.7502
v  -1.0941 0.1965 -0.4039
v  -1.3179 0.2464 -0.0642
v  -1.3297 0.2586 0.4104
v  -1.2955 0.2549 0.8662
v  -0.9157 0.4817 -0.2819
v  -1.0836 0.5846 -0.0056
v  -1.1295 0.6173 0.3801
v  -1.0172 0.5578 0.7099
# 152 vertices

vn -0.5350 -0.6816 0.4992
vn -0.2784 -0.7622 0.5845
vn -0.7767 -0.5489 0.3089
vn -0.7966 -0.4195 0.4353
vn 0.0343 -0.8910 0.4528
vn 0.1291 -0.7043 0.6981
vn 0.3696 -0.8162 0.4441
vn 0.2595 -0.6866 0.6791
vn 0.4652 -0.7313 0.4988
vn 0.4058 -0.8155 0.4127
vn 0.5426 -0.6102 0.5772
vn 0.4930 -0.6882 0.5324
vn -0.4317 -0.8904 0.1447
vn -0.8622 -0.4251 0.2754
vn 0.1264 -0.9834 0.1299
vn 0.1471 -0.9713 0.1869
vn 0.2975 -0.9117 0.2835
vn 0.6494 -0.6677 0.3640
vn -0.3693 -0.8601 -0.3518
vn -0.8255 -0.5618 -0.0546
vn -0.0305 -0.9859 -0.1647
vn 0.2125 -0.9758 0.0513
vn 0.2719 -0.9594 0.0746
vn 0.3005 -0.9471 0.1127
vn -0.2117 -0.9126 -0.3497
vn -0.6334 -0.7404 -0.2248
vn -0.2364 -0.9220 -0.3065
vn -0.0670 -0.9863 -0.1506
vn 0.2245 -0.9650 0.1359
vn 0.3422 -0.9367 0.0736
vn -0.2009 -0.9496 -0.2404
vn -0.4771 -0.7174 -0.5077
vn -0.2324 -0.9500 -0.2087
vn -0.2534 -0.9084 -0.3325
vn 0.1138 -0.7832 -0.6113
vn 0.7261 -0.5702 -0.3842
vn -0.5170 0.7358 0.4374
vn -0.5390 0.7798 0.3184
vn -0.4399 0.7911 0.4250
vn -0.2698 0.6670 0.6945
vn -0.1301 0.8371 0.5314
vn -0.2621 0.5411 0.7991
vn 0.0970 0.9565 0.2750
vn -0.1265 0.8399 0.5279
vn 0.2445 0.9065 0.3441
vn 0.1907 0.9253 0.3278
vn 0.5166 0.7487 0.4153
vn 0.4761 0.8120 0.3376
vn -0.4804 0.8572 0.1856
vn -0.5591 0.8039 0.2026
vn -0.1279 0.9907 0.0474
vn 0.0686 0.9740 0.2161
vn 0.2140 0.9651 0.1506
vn 0.5187 0.8477 0.1110
vn -0.3717 0.8958 -0.2437
vn -0.6583 0.7143 -0.2373
vn -0.1632 0.9555 -0.2459
vn 0.0113 0.9999 -0.0049
vn 0.3579 0.9329 0.0394
vn 0.7157 0.6589 -0.2315
vn -0.5129 0.7195 -0.4682
vn -0.6012 0.5615 -0.5686
vn -0.3630 0.7870 -0.4988
vn -0.2032 0.8634 -0.4618
vn 0.4864 0.8304 -0.2719
vn 0.8544 0.4843 -0.1884
vn -0.3982 0.7227 -0.5649
vn -0.6813 0.5566 -0.4754
vn -0.2200 0.5865 -0.7795
vn -0.2947 0.5667 -0.7694
vn 0.0655 0.7335 -0.6766
vn 0.6531 0.7239 -0.2223
vn -0.4828 -0.3963 0.7809
vn -0.8127 -0.5233 0.2562
vn 0.1068 -0.6343 0.7657
vn 0.1567 -0.6402 0.7520
vn 0.4373 -0.6307 0.6411
vn 0.7546 -0.5279 0.3897
vn -0.4885 -0.0046 0.8726
vn -0.6303 -0.2613 0.7310
vn -0.2558 -0.2013 0.9455
vn 0.2676 -0.3426 0.9006
vn 0.5450 -0.1995 0.8143
vn 0.7633 -0.4047 0.5036
vn -0.3806 0.2443 0.8919
vn -0.3722 0.0936 0.9234
vn -0.3137 0.4225 0.8504
vn 0.1200 0.2544 0.9596
vn 0.3444 -0.0954 0.9340
vn 0.4997 -0.0832 0.8622
vn -0.1574 0.4661 0.8706
vn -0.5075 0.4259 0.7490
vn -0.2948 0.5351 0.7917
vn -0.3052 0.5277 0.7927
vn 0.3316 0.5021 0.7987
vn 0.7829 0.4900 0.3834
vn 0.7891 -0.4498 0.4184
vn 0.7438 -0.3801 0.5498
vn 0.6741 -0.6577 0.3363
vn 0.5881 -0.7073 -0.3924
vn 0.4027 -0.1766 -0.8981
vn 0.7746 -0.4993 0.3881
vn 0.7394 -0.4490 0.5017
vn 0.9684 -0.0736 0.2382
vn 0.7947 0.0571 -0.6043
vn 0.2435 -0.1951 -0.9501
vn 0.7842 0.0408 0.6191
vn 0.9883 0.0852 0.1266
vn 0.8007 0.5472 -0.2438
vn 0.7659 0.6157 -0.1853
vn 0.7488 0.1908 -0.6347
vn 0.6235 0.6840 0.3787
vn 0.7063 0.7067 0.0414
vn 0.7430 0.5947 -0.3071
vn 0.7757 0.6186 -0.1245
vn 0.7185 0.6438 -0.2632
vn 0.4547 -0.1240 -0.8820
vn 0.2024 -0.5774 -0.7910
vn -0.1937 -0.8384 -0.5095
vn -0.5257 -0.6805 -0.5104
vn -0.8126 -0.5467 -0.2018
vn 0.3919 -0.1850 -0.9012
vn 0.4311 0.0728 -0.8993
vn -0.1112 -0.0456 -0.9928
vn -0.6035 0.0099 -0.7973
vn -0.8686 -0.0181 -0.4952
vn 0.1934 0.0605 -0.9792
vn -0.1247 0.4014 -0.9074
vn -0.1559 0.6434 -0.7495
vn -0.4613 0.5019 -0.7316
vn -0.6772 0.5572 -0.4805
vn 0.1847 0.5413 -0.8203
vn -0.3006 0.5326 -0.7912
vn -0.1594 0.5710 -0.8054
vn -0.4010 0.6332 -0.6620
vn -0.6606 0.5972 -0.4548
vn -0.8940 -0.4320 -0.1186
vn -0.9498 -0.3089 -0.0498
vn -0.9013 -0.3922 0.1838
vn -0.7322 -0.5925 0.3359
vn -0.9849 -0.1671 -0.0448
vn -0.9250 -0.3798 -0.0134
vn -0.9290 -0.3697 0.0169
vn -0.7849 -0.5506 0.2842
vn -0.7429 0.3967 -0.5392
vn -0.9494 0.1079 -0.2948
vn -0.9976 0.0639 0.0269
vn -0.8042 0.1673 0.5703
vn -0.6073 0.5897 -0.5324
vn -0.7243 0.5824 -0.3690
vn -0.7472 0.6561 0.1064
vn -0.5374 0.7596 0.3663
# 152 vertex normals

vt 0.8975 0.6101 0.0000
vt 0.9423 0.6025 0.0000
vt 0.9302 0.6466 0.0000
vt 0.8927 0.6589 0.0000
vt 0.9025 0.5519 0.0000
vt 0.9464 0.5459 0.0000
vt 0.9000 0.4914 0.0000
vt 0.9426 0.4925 0.0000
vt 0.8951 0.4408 0.0000
vt 0.9339 0.4468 0.0000
vt 0.8897 0.4034 0.0000
vt 0.9257 0.4130 0.0000
vt 0.8405 0.6190 0.0000
vt 0.8385 0.6671 0.0000
vt 0.8418 0.5521 0.0000
vt 0.8423 0.4896 0.0000
vt 0.8412 0.4348 0.0000
vt 0.8397 0.3919 0.0000
vt 0.7775 0.6169 0.0000
vt 0.7802 0.6637 0.0000
vt 0.7764 0.5548 0.0000
vt 0.7780 0.4910 0.0000
vt 0.7841 0.4365 0.0000
vt 0.7864 0.3887 0.0000
vt 0.7250 0.6086 0.0000
vt 0.7308 0.6541 0.0000
vt 0.7229 0.5549 0.0000
vt 0.7159 0.4930 0.0000
vt 0.7224 0.4350 0.0000
vt 0.7313 0.3870 0.0000
vt 0.6828 0.6031 0.0000
vt 0.6900 0.6460 0.0000
vt 0.6782 0.5539 0.0000
vt 0.6700 0.4964 0.0000
vt 0.6602 0.4346 0.0000
vt 0.6758 0.3868 0.0000
vt 0.0921 0.7353 0.0000
vt 0.0539 0.7409 0.0000
vt 0.0603 0.7039 0.0000
vt 0.0978 0.6978 0.0000
vt 0.1444 0.7302 0.0000
vt 0.1452 0.6909 0.0000
vt 0.2012 0.7303 0.0000
vt 0.1987 0.6866 0.0000
vt 0.2572 0.7325 0.0000
vt 0.2502 0.6900 0.0000
vt 0.3003 0.7382 0.0000
vt 0.2902 0.6999 0.0000
vt 0.0870 0.7871 0.0000
vt 0.0461 0.7886 0.0000
vt 0.1420 0.7849 0.0000
vt 0.2045 0.7843 0.0000
vt 0.2664 0.7843 0.0000
vt 0.3137 0.7871 0.0000
vt 0.0853 0.8456 0.0000
vt 0.0440 0.8428 0.0000
vt 0.1411 0.8480 0.0000
vt 0.2044 0.8471 0.0000
vt 0.2656 0.8453 0.0000
vt 0.3106 0.8417 0.0000
vt 0.0915 0.8993 0.0000
vt 0.0545 0.8925 0.0000
vt 0.1410 0.9054 0.0000
vt 0.2021 0.9088 0.0000
vt 0.2638 0.9088 0.0000
vt 0.3112 0.8929 0.0000
vt 0.0962 0.9403 0.0000
vt 0.0627 0.9285 0.0000
vt 0.1397 0.9472 0.0000
vt 0.1914 0.9542 0.0000
vt 0.2576 0.9560 0.0000
vt 0.3009 0.9401 0.0000
vt 0.4085 0.4387 0.0000
vt 0.3620 0.4474 0.0000
vt 0.3692 0.4044 0.0000
vt 0.4151 0.3913 0.0000
vt 0.4687 0.4324 0.0000
vt 0.4745 0.3868 0.0000
vt 0.5313 0.4303 0.0000
vt 0.5302 0.3875 0.0000
vt 0.5858 0.4384 0.0000
vt 0.5788 0.3943 0.0000
vt 0.6255 0.4398 0.0000
vt 0.6143 0.4018 0.0000
vt 0.4018 0.4994 0.0000
vt 0.3551 0.5016 0.0000
vt 0.4638 0.4963 0.0000
vt 0.5326 0.4963 0.0000
vt 0.5929 0.4941 0.0000
vt 0.6371 0.4907 0.0000
vt 0.4021 0.5623 0.0000
vt 0.3570 0.5587 0.0000
vt 0.4601 0.5661 0.0000
vt 0.5308 0.5662 0.0000
vt 0.5917 0.5569 0.0000
vt 0.6455 0.5528 0.0000
vt 0.4106 0.6156 0.0000
vt 0.3644 0.6088 0.0000
vt 0.4614 0.6231 0.0000
vt 0.5248 0.6251 0.0000
vt 0.5924 0.6198 0.0000
vt 0.6365 0.6118 0.0000
vt 0.4186 0.6548 0.0000
vt 0.3814 0.6467 0.0000
vt 0.4638 0.6630 0.0000
vt 0.5182 0.6677 0.0000
vt 0.5748 0.6684 0.0000
vt 0.6200 0.6608 0.0000
vt 0.1051 0.1149 0.0000
vt 0.0629 0.1248 0.0000
vt 0.0769 0.0866 0.0000
vt 0.1141 0.0759 0.0000
vt 0.1585 0.1025 0.0000
vt 0.1638 0.0573 0.0000
vt 0.2397 0.0985 0.0000
vt 0.2221 0.0440 0.0000
vt 0.3144 0.1060 0.0000
vt 0.2925 0.0461 0.0000
vt 0.3698 0.1049 0.0000
vt 0.3489 0.0596 0.0000
vt 0.0973 0.1673 0.0000
vt 0.0502 0.1778 0.0000
vt 0.1588 0.1641 0.0000
vt 0.2493 0.1706 0.0000
vt 0.3264 0.1705 0.0000
vt 0.3860 0.1757 0.0000
vt 0.0940 0.2507 0.0000
vt 0.0440 0.2471 0.0000
vt 0.1647 0.2524 0.0000
vt 0.2419 0.2550 0.0000
vt 0.3167 0.2529 0.0000
vt 0.3785 0.2428 0.0000
vt 0.1007 0.3168 0.0000
vt 0.0507 0.3080 0.0000
vt 0.1662 0.3217 0.0000
vt 0.2389 0.3266 0.0000
vt 0.2960 0.3197 0.0000
vt 0.3536 0.3091 0.0000
vt 0.1106 0.3631 0.0000
vt 0.0681 0.3552 0.0000
vt 0.1686 0.3702 0.0000
vt 0.2319 0.3721 0.0000
vt 0.2866 0.3641 0.0000
vt 0.3370 0.3547 0.0000
vt 0.4882 0.1010 0.0000
vt 0.4334 0.1068 0.0000
vt 0.4481 0.0569 0.0000
vt 0.5006 0.0478 0.0000
vt 0.5519 0.0971 0.0000
vt 0.5651 0.0440 0.0000
vt 0.6242 0.1020 0.0000
vt 0.6335 0.0445 0.0000
vt 0.6864 0.1250 0.0000
vt 0.6875 0.0666 0.0000
vt 0.7404 0.1346 0.0000
vt 0.7276 0.0906 0.0000
vt 0.4738 0.1659 0.0000
vt 0.4189 0.1637 0.0000
vt 0.5384 0.1698 0.0000
vt 0.6203 0.1706 0.0000
vt 0.6908 0.1884 0.0000
vt 0.7441 0.2030 0.0000
vt 0.4600 0.2381 0.0000
vt 0.4007 0.2292 0.0000
vt 0.5344 0.2491 0.0000
vt 0.6095 0.2666 0.0000
vt 0.6779 0.2662 0.0000
vt 0.7254 0.2806 0.0000
vt 0.4659 0.3057 0.0000
vt 0.4150 0.2995 0.0000
vt 0.5429 0.3193 0.0000
vt 0.6049 0.3269 0.0000
vt 0.6613 0.3247 0.0000
vt 0.7034 0.3302 0.0000
vt 0.4740 0.3592 0.0000
vt 0.4262 0.3473 0.0000
vt 0.5429 0.3662 0.0000
vt 0.5997 0.3672 0.0000
vt 0.6489 0.3646 0.0000
vt 0.6876 0.3638 0.0000
vt 0.1168 0.4318 0.0000
vt 0.0693 0.4286 0.0000
vt 0.0832 0.3899 0.0000
vt 0.1255 0.3888 0.0000
vt 0.1730 0.4335 0.0000
vt 0.1767 0.3868 0.0000
vt 0.2325 0.4376 0.0000
vt 0.2321 0.3914 0.0000
vt 0.2860 0.4459 0.0000
vt 0.2824 0.4048 0.0000
vt 0.3299 0.4559 0.0000
vt 0.3207 0.4163 0.0000
vt 0.1033 0.4880 0.0000
vt 0.0440 0.4792 0.0000
vt 0.1676 0.4892 0.0000
vt 0.2314 0.4930 0.0000
vt 0.2936 0.5026 0.0000
vt 0.3404 0.5089 0.0000
vt 0.1049 0.5530 0.0000
vt 0.0607 0.5469 0.0000
vt 0.1628 0.5600 0.0000
vt 0.2296 0.5662 0.0000
vt 0.2915 0.5690 0.0000
vt 0.3394 0.5702 0.0000
vt 0.1070 0.6118 0.0000
vt 0.0691 0.5990 0.0000
vt 0.1604 0.6224 0.0000
vt 0.2220 0.6279 0.0000
vt 0.2790 0.6287 0.0000
vt 0.3229 0.6230 0.0000
vt 0.1107 0.6497 0.0000
vt 0.0757 0.6355 0.0000
vt 0.1602 0.6652 0.0000
vt 0.2162 0.6719 0.0000
vt 0.2675 0.6692 0.0000
vt 0.3061 0.6617 0.0000
# 216 texture coords

o rockLP002
g rockLP002
usemtl wire_115115115
s 1
f 1/1/1 2/2/2 3/3/3 4/4/4 
f 5/5/5 6/6/6 2/2/2 1/1/1 
f 7/7/7 8/8/8 6/6/6 5/5/5 
f 9/9/9 10/10/10 8/8/8 7/7/7 
f 11/11/11 12/12/12 10/10/10 9/9/9 
f 13/13/13 1/1/1 4/4/4 14/14/14 
f 15/15/15 5/5/5 1/1/1 13/13/13 
f 16/16/16 7/7/7 5/5/5 15/15/15 
f 17/17/17 9/9/9 7/7/7 16/16/16 
f 18/18/18 11/11/11 9/9/9 17/17/17 
f 19/19/19 13/13/13 14/14/14 20/20/20 
f 21/21/21 15/15/15 13/13/13 19/19/19 
f 22/22/22 16/16/16 15/15/15 21/21/21 
f 23/23/23 17/17/17 16/16/16 22/22/22 
f 24/24/24 18/18/18 17/17/17 23/23/23 
f 25/25/25 19/19/19 20/20/20 26/26/26 
f 27/27/27 21/21/21 19/19/19 25/25/25 
f 28/28/28 22/22/22 21/21/21 27/27/27 
f 29/29/29 23/23/23 22/22/22 28/28/28 
f 30/30/30 24/24/24 23/23/23 29/29/29 
f 31/31/31 25/25/25 26/26/26 32/32/32 
f 33/33/33 27/27/27 25/25/25 31/31/31 
f 34/34/34 28/28/28 27/27/27 33/33/33 
f 35/35/35 29/29/29 28/28/28 34/34/34 
f 36/36/36 30/30/30 29/29/29 35/35/35 
f 37/37/37 38/38/38 39/39/39 40/40/40 
f 41/41/41 37/37/37 40/40/40 42/42/42 
f 43/43/43 41/41/41 42/42/42 44/44/44 
f 45/45/45 43/43/43 44/44/44 46/46/46 
f 47/47/47 45/45/45 46/46/46 48/48/48 
f 49/49/49 50/50/50 38/38/38 37/37/37 
f 51/51/51 49/49/49 37/37/37 41/41/41 
f 52/52/52 51/51/51 41/41/41 43/43/43 
f 53/53/53 52/52/52 43/43/43 45/45/45 
f 54/54/54 53/53/53 45/45/45 47/47/47 
f 55/55/55 56/56/56 50/50/50 49/49/49 
f 57/57/57 55/55/55 49/49/49 51/51/51 
f 58/58/58 57/57/57 51/51/51 52/52/52 
f 59/59/59 58/58/58 52/52/52 53/53/53 
f 60/60/60 59/59/59 53/53/53 54/54/54 
f 61/61/61 62/62/62 56/56/56 55/55/55 
f 63/63/63 61/61/61 55/55/55 57/57/57 
f 64/64/64 63/63/63 57/57/57 58/58/58 
f 65/65/65 64/64/64 58/58/58 59/59/59 
f 66/66/66 65/65/65 59/59/59 60/60/60 
f 67/67/67 68/68/68 62/62/62 61/61/61 
f 69/69/69 67/67/67 61/61/61 63/63/63 
f 70/70/70 69/69/69 63/63/63 64/64/64 
f 71/71/71 70/70/70 64/64/64 65/65/65 
f 72/72/72 71/71/71 65/65/65 66/66/66 
f 73/73/73 74/74/74 3/75/3 2/76/2 
f 75/77/75 73/73/73 2/76/2 6/78/6 
f 76/79/76 75/77/75 6/78/6 8/80/8 
f 77/81/77 76/79/76 8/80/8 10/82/10 
f 78/83/78 77/81/77 10/82/10 12/84/12 
f 79/85/79 80/86/80 74/74/74 73/73/73 
f 81/87/81 79/85/79 73/73/73 75/77/75 
f 82/88/82 81/87/81 75/77/75 76/79/76 
f 83/89/83 82/88/82 76/79/76 77/81/77 
f 84/90/84 83/89/83 77/81/77 78/83/78 
f 85/91/85 86/92/86 80/86/80 79/85/79 
f 87/93/87 85/91/85 79/85/79 81/87/81 
f 88/94/88 87/93/87 81/87/81 82/88/82 
f 89/95/89 88/94/88 82/88/82 83/89/83 
f 90/96/90 89/95/89 83/89/83 84/90/84 
f 91/97/91 92/98/92 86/92/86 85/91/85 
f 93/99/93 91/97/91 85/91/85 87/93/87 
f 94/100/94 93/99/93 87/93/87 88/94/88 
f 95/101/95 94/100/94 88/94/88 89/95/89 
f 96/102/96 95/101/95 89/95/89 90/96/90 
f 40/103/40 39/104/39 92/98/92 91/97/91 
f 42/105/42 40/103/40 91/97/91 93/99/93 
f 44/106/44 42/105/42 93/99/93 94/100/94 
f 46/107/46 44/106/44 94/100/94 95/101/95 
f 48/108/48 46/107/46 95/101/95 96/102/96 
f 97/109/97 78/110/78 12/111/12 11/112/11 
f 98/113/98 97/109/97 11/112/11 18/114/18 
f 99/115/99 98/113/98 18/114/18 24/116/24 
f 100/117/100 99/115/99 24/116/24 30/118/30 
f 101/119/101 100/117/100 30/118/30 36/120/36 
f 102/121/102 84/122/84 78/110/78 97/109/97 
f 103/123/103 102/121/102 97/109/97 98/113/98 
f 104/124/104 103/123/103 98/113/98 99/115/99 
f 105/125/105 104/124/104 99/115/99 100/117/100 
f 106/126/106 105/125/105 100/117/100 101/119/101 
f 107/127/107 90/128/90 84/122/84 102/121/102 
f 108/129/108 107/127/107 102/121/102 103/123/103 
f 109/130/109 108/129/108 103/123/103 104/124/104 
f 110/131/110 109/130/109 104/124/104 105/125/105 
f 111/132/111 110/131/110 105/125/105 106/126/106 
f 112/133/112 96/134/96 90/128/90 107/127/107 
f 113/135/113 112/133/112 107/127/107 108/129/108 
f 114/136/114 113/135/113 108/129/108 109/130/109 
f 115/137/115 114/136/114 109/130/109 110/131/110 
f 116/138/116 115/137/115 110/131/110 111/132/111 
f 47/139/47 48/140/48 96/134/96 112/133/112 
f 54/141/54 47/139/47 112/133/112 113/135/113 
f 60/142/60 54/141/54 113/135/113 114/136/114 
f 66/143/66 60/142/60 114/136/114 115/137/115 
f 72/144/72 66/143/66 115/137/115 116/138/116 
f 117/145/117 101/146/101 36/147/36 35/148/35 
f 118/149/118 117/145/117 35/148/35 34/150/34 
f 119/151/119 118/149/118 34/150/34 33/152/33 
f 120/153/120 119/151/119 33/152/33 31/154/31 
f 121/155/121 120/153/120 31/154/31 32/156/32 
f 122/157/122 106/158/106 101/146/101 117/145/117 
f 123/159/123 122/157/122 117/145/117 118/149/118 
f 124/160/124 123/159/123 118/149/118 119/151/119 
f 125/161/125 124/160/124 119/151/119 120/153/120 
f 126/162/126 125/161/125 120/153/120 121/155/121 
f 127/163/127 111/164/111 106/158/106 122/157/122 
f 128/165/128 127/163/127 122/157/122 123/159/123 
f 129/166/129 128/165/128 123/159/123 124/160/124 
f 130/167/130 129/166/129 124/160/124 125/161/125 
f 131/168/131 130/167/130 125/161/125 126/162/126 
f 132/169/132 116/170/116 111/164/111 127/163/127 
f 133/171/133 132/169/132 127/163/127 128/165/128 
f 134/172/134 133/171/133 128/165/128 129/166/129 
f 135/173/135 134/172/134 129/166/129 130/167/130 
f 136/174/136 135/173/135 130/167/130 131/168/131 
f 71/175/71 72/176/72 116/170/116 132/169/132 
f 70/177/70 71/175/71 132/169/132 133/171/133 
f 69/178/69 70/177/70 133/171/133 134/172/134 
f 67/179/67 69/178/69 134/172/134 135/173/135 
f 68/180/68 67/179/67 135/173/135 136/174/136 
f 137/181/137 121/182/121 32/183/32 26/184/26 
f 138/185/138 137/181/137 26/184/26 20/186/20 
f 139/187/139 138/185/138 20/186/20 14/188/14 
f 140/189/140 139/187/139 14/188/14 4/190/4 
f 74/191/74 140/189/140 4/190/4 3/192/3 
f 141/193/141 126/194/126 121/182/121 137/181/137 
f 142/195/142 141/193/141 137/181/137 138/185/138 
f 143/196/143 142/195/142 138/185/138 139/187/139 
f 144/197/144 143/196/143 139/187/139 140/189/140 
f 80/198/80 144/197/144 140/189/140 74/191/74 
f 145/199/145 131/200/131 126/194/126 141/193/141 
f 146/201/146 145/199/145 141/193/141 142/195/142 
f 147/202/147 146/201/146 142/195/142 143/196/143 
f 148/203/148 147/202/147 143/196/143 144/197/144 
f 86/204/86 148/203/148 144/197/144 80/198/80 
f 149/205/149 136/206/136 131/200/131 145/199/145 
f 150/207/150 149/205/149 145/199/145 146/201/146 
f 151/208/151 150/207/150 146/201/146 147/202/147 
f 152/209/152 151/208/151 147/202/147 148/203/148 
f 92/210/92 152/209/152 148/203/148 86/204/86 
f 62/211/62 68/212/68 136/206/136 149/205/149 
f 56/213/56 62/211/62 149/205/149 150/207/150 
f 50/214/50 56/213/56 150/207/150 151/208/151 
f 38/215/38 50/214/50 151/208/151 152/209/152 
f 39/216/39 38/215/38 152/209/152 92/210/92 
# 150 polygons

